<?xml version="1.0" encoding="iso-8859-1"?>
<!-- Generator: Adobe Illustrator 16.0.4, SVG Export Plug-In . SVG Version: 6.00 Build 0)  -->
<!DOCTYPE svg PUBLIC "-//W3C//DTD SVG 1.1//EN" "http://www.w3.org/Graphics/SVG/1.1/DTD/svg11.dtd">
<svg version="1.1" id="Layer_1" xmlns="http://www.w3.org/2000/svg" xmlns:xlink="http://www.w3.org/1999/xlink" x="0px" y="0px"
	 width="80.075px" height="80.075px" viewBox="0 0 80.075 80.075" style="enable-background:new 0 0 80.075 80.075;"
	 xml:space="preserve">
<g>
	<path style="opacity:0.35;" d="M55.425,70.792c0,0-2.729-9.184-2.729-28.754c0-19.57,2.729-28.754,2.729-28.754H17.294
		c0,0,2.729,9.185,2.729,28.754c0,19.57-2.729,28.754-2.729,28.754H55.425z"/>
	<path style="fill:#FFFFFF;" d="M58.425,68.792c0,0-2.729-9.184-2.729-28.753c0-19.57,2.729-28.755,2.729-28.755H20.294
		c0,0,2.729,9.185,2.729,28.755c0,19.57-2.729,28.753-2.729,28.753H58.425z"/>
	<rect style="fill:none;" width="80.075" height="80.075"/>
	<path style="fill:none;stroke:#000000;stroke-width:0.624;stroke-miterlimit:10;" d="M58.425,11.283c0,0-2.729,9.185-2.729,28.755
		c0,19.57,2.729,28.753,2.729,28.753"/>
	<path style="fill:none;stroke:#000000;stroke-width:0.624;stroke-miterlimit:10;" d="M20.294,11.283c0,0,2.729,9.185,2.729,28.755
		c0,19.57-2.729,28.753-2.729,28.753"/>
</g>
<g>
</g>
<g>
</g>
<g>
</g>
<g>
</g>
<g>
</g>
<g>
</g>
<g>
</g>
<g>
</g>
<g>
</g>
<g>
</g>
<g>
</g>
<g>
</g>
<g>
</g>
<g>
</g>
<g>
</g>
</svg>
